<?xml version="1.0" standalone="no"?>
<!DOCTYPE svg PUBLIC "-//W3C//DTD SVG 20010904//EN"
 "http://www.w3.org/TR/2001/REC-SVG-20010904/DTD/svg10.dtd">
<svg version="1.0" xmlns="http://www.w3.org/2000/svg"
 width="512.000000pt" height="512.000000pt" viewBox="0 0 512.000000 512.000000"
 preserveAspectRatio="xMidYMid meet">
<metadata>
Created by potrace 1.11, written by Peter Selinger 2001-2013
</metadata>
<g transform="translate(0.000000,512.000000) scale(0.100000,-0.100000)"
fill="#000000" stroke="none">
<path d="M1330 3681 c-49 -15 -87 -40 -124 -81 -76 -85 -71 -8 -71 -1040 0
-1032 -5 -955 71 -1040 21 -23 56 -51 78 -63 l41 -22 1235 0 1235 0 41 22 c22
12 57 40 78 63 76 85 71 8 71 1040 0 1032 5 955 -71 1040 -21 23 -56 51 -78
63 l-41 22 -1220 2 c-671 1 -1231 -2 -1245 -6z m2210 -191 c24 -24 25 -47 3
-72 -14 -16 -34 -18 -184 -18 -181 0 -199 5 -199 55 0 47 30 55 202 55 145 0
160 -2 178 -20z m182 3 c35 -32 13 -93 -34 -93 -27 0 -58 28 -58 52 0 23 34
58 57 58 9 0 25 -7 35 -17z m106 -1049 l-3 -796 -33 -29 -32 -29 -1200 0
-1200 0 -32 29 -33 29 -3 796 -2 796 1270 0 1270 0 -2 -796z"/>
<path d="M1857 2984 c-4 -4 -7 -99 -7 -211 l0 -203 35 0 c22 0 38 6 41 15 5
12 9 12 30 -1 13 -9 39 -16 59 -16 74 0 115 56 115 160 0 68 -26 118 -75 141
-26 12 -35 12 -72 -1 l-42 -15 -3 66 -3 66 -35 3 c-20 2 -39 0 -43 -4z m173
-203 c15 -29 12 -93 -6 -119 -33 -47 -84 -11 -84 61 0 54 15 77 50 77 19 0 33
-7 40 -19z"/>
<path d="M1628 2847 c-114 -55 -127 -65 -125 -86 2 -21 19 -32 117 -76 164
-73 150 -70 150 -27 l0 37 -86 34 -86 34 86 40 c83 39 86 41 86 73 0 19 -3 34
-7 33 -5 0 -65 -28 -135 -62z"/>
<path d="M2462 2878 c3 -30 10 -36 87 -74 l83 -40 -83 -35 c-80 -34 -84 -37
-84 -67 0 -18 4 -32 8 -33 4 -1 64 23 132 52 112 49 125 57 125 79 0 22 -14
33 -125 88 -69 34 -130 62 -136 62 -6 0 -9 -14 -7 -32z"/>
<path d="M2326 2855 c-34 -23 -36 -23 -36 -5 0 17 -7 20 -40 20 l-40 0 0 -150
0 -150 45 0 45 0 0 84 c0 101 19 136 76 136 34 0 34 0 34 45 0 41 -2 45 -24
45 -13 0 -40 -11 -60 -25z"/>
<path d="M2604 2400 c-147 -21 -178 -39 -170 -104 3 -22 8 -68 12 -101 13
-126 76 -255 151 -308 l38 -27 -163 0 c-94 0 -172 -4 -183 -10 -28 -15 -24
-49 7 -60 15 -6 234 -10 552 -10 461 0 530 2 550 16 27 19 28 40 3 54 -11 6
-93 10 -193 10 -172 0 -173 1 -148 19 21 17 27 18 44 5 26 -18 60 -18 75 0 15
17 4 46 -18 46 -9 0 12 14 47 31 99 48 176 163 157 236 -11 45 -49 73 -100 73
l-45 0 0 44 c0 48 -8 54 -100 76 -58 14 -436 21 -516 10z m514 -40 c28 -6 52
-15 52 -20 0 -40 -530 -51 -667 -14 -55 15 -14 31 117 45 101 10 432 3 498
-11z m32 -148 c0 -77 -65 -232 -97 -232 -19 0 -16 10 18 73 19 36 32 78 36
114 6 59 18 87 34 77 5 -3 9 -17 9 -32z m134 -8 c38 -15 11 -89 -53 -147 -44
-40 -68 -48 -56 -19 4 9 15 48 24 85 20 80 39 99 85 81z m-264 -253 c0 -14
-18 -23 -30 -16 -6 4 -8 11 -5 16 8 12 35 12 35 0z"/>
</g>
</svg>
